<?xml version="1.0" encoding="UTF-8"?>
<svg version="1.1" xmlns="http://www.w3.org/2000/svg" width="163" height="168">
<path d="M0 0 C0.87347769 0.20827643 1.74695538 0.41655287 2.64690208 0.63114071 C5.43717192 1.29802446 8.22518148 1.97385257 11.01318359 2.65014648 C12.75026378 3.06671869 14.48748684 3.48269555 16.22485352 3.89807129 C22.62217184 5.43193371 29.01673603 6.9772646 35.41162109 8.52124023 C49.72537109 11.96561523 64.03912109 15.40999023 78.78662109 18.95874023 C78.78662109 56.24874023 78.78662109 93.53874023 78.78662109 131.95874023 C65.99063218 138.69347124 53.21140364 145.3593475 40.24365234 151.73999023 C36.10489692 153.77889518 32.03052617 155.8957448 27.98583984 158.11499023 C27.07366699 158.59645508 26.16149414 159.07791992 25.22167969 159.57397461 C23.54639578 160.45855945 21.88677232 161.37391919 20.25 162.32788086 C15.15551196 164.94968098 11.71871073 165.04981686 6.13012695 163.82446289 C5.15669657 163.61477088 5.15669657 163.61477088 4.16360092 163.40084267 C2.03408605 162.93582737 -0.08979549 162.45009778 -2.21337891 161.95874023 C-2.92918814 161.79451317 -3.64499737 161.6302861 -4.38249779 161.46108246 C-9.88204476 160.19282384 -15.36844268 158.87189833 -20.85400391 157.54467773 C-22.59652645 157.12516235 -24.33910153 156.70586516 -26.08172607 156.28677368 C-29.69912041 155.41618344 -33.31605112 154.54370221 -36.93261719 153.66967773 C-41.56877923 152.54930184 -46.20583576 151.43268173 -50.8432045 150.31731224 C-54.42588127 149.45538387 -58.00822159 148.59206439 -61.59044647 147.72826004 C-63.30162042 147.31569942 -65.0128677 146.90344284 -66.72418976 146.49149704 C-69.10274668 145.91859879 -71.48087666 145.34396222 -73.85888672 144.76879883 C-74.56324356 144.59944321 -75.2676004 144.43008759 -75.99330139 144.25559998 C-78.77754565 143.58054699 -81.4936684 142.8653104 -84.21337891 141.95874023 C-84.21337891 104.66874023 -84.21337891 67.37874023 -84.21337891 28.95874023 C-72.66337891 23.34874023 -61.11337891 17.73874023 -49.21337891 11.95874023 C-35.85270488 5.00538926 -35.85270488 5.00538926 -22.54711914 -2.04760742 C-15.27706929 -4.21451353 -7.21209017 -1.76669658 0 0 Z M-5.21337891 19.95874023 C-5.21337891 27.54874023 -5.21337891 35.13874023 -5.21337891 42.95874023 C4.79027234 46.23444564 9.76191589 46.52176415 18.98345947 41.95632935 C21.05799959 40.8792817 23.1090853 39.76455335 25.16162109 38.64624023 C26.58940929 37.90623597 28.01909261 37.1698763 29.45068359 36.43725586 C32.91925527 34.65231258 36.35853234 32.82016754 39.78662109 30.95874023 C35.85757796 28.63581071 31.58640649 27.81859069 27.18896484 26.79467773 C26.35828995 26.59774323 25.52761505 26.40080872 24.67176819 26.19790649 C22.91984535 25.78375858 21.16734232 25.37205829 19.41430664 24.96264648 C16.72893276 24.3348651 14.04578319 23.69818556 11.36279297 23.06030273 C9.65914175 22.65873116 7.95536966 22.25767194 6.25146484 21.85717773 C5.4482933 21.66658783 4.64512177 21.47599792 3.81761169 21.27963257 C0.74345717 20.56529263 -2.04585299 19.95874023 -5.21337891 19.95874023 Z M-31.12744141 25.70874023 C-31.88798828 26.06967773 -32.64853516 26.43061523 -33.43212891 26.80249023 C-34.22619141 27.18405273 -35.02025391 27.56561523 -35.83837891 27.95874023 C-36.64017578 28.34030273 -37.44197266 28.72186523 -38.26806641 29.11499023 C-40.25150202 30.05948338 -42.23315973 31.00752668 -44.21337891 31.95874023 C-43.4277212 34.11762413 -43.4277212 34.11762413 -41.44750977 34.55297852 C-40.69864502 34.71008301 -39.94978027 34.8671875 -39.17822266 35.02905273 C-38.36933594 35.20307617 -37.56044922 35.37709961 -36.72705078 35.55639648 C-35.87691406 35.73041992 -35.02677734 35.90444336 -34.15087891 36.08374023 C-33.296875 36.26549805 -32.44287109 36.44725586 -31.56298828 36.63452148 C-29.44804595 37.08350366 -27.33090244 37.52209374 -25.21337891 37.95874023 C-25.21337891 33.33874023 -25.21337891 28.71874023 -25.21337891 23.95874023 C-27.64228202 23.95874023 -28.93776427 24.66292429 -31.12744141 25.70874023 Z M49.49755859 47.89624023 C48.77221924 48.25008789 48.04687988 48.60393555 47.29956055 48.96850586 C44.58481406 50.29429252 41.87341924 51.62693335 39.16162109 52.95874023 C30.06599609 57.41374023 30.06599609 57.41374023 20.78662109 61.95874023 C20.78662109 75.81874023 20.78662109 89.67874023 20.78662109 103.95874023 C29.88224609 106.18624023 29.88224609 106.18624023 39.16162109 108.45874023 C41.07507324 108.92860352 42.98852539 109.3984668 44.95996094 109.88256836 C46.47244898 110.25189133 47.98497868 110.62104372 49.49755859 110.98999023 C50.28622314 111.18431641 51.0748877 111.37864258 51.88745117 111.57885742 C55.79145992 112.59110763 55.79145992 112.59110763 59.78662109 112.95874023 C59.78662109 90.18874023 59.78662109 67.41874023 59.78662109 43.95874023 C56.09136646 43.95874023 52.76923366 46.28396518 49.49755859 47.89624023 Z M-64.21337891 48.95874023 C-64.21337891 71.72874023 -64.21337891 94.49874023 -64.21337891 117.95874023 C-49.05392431 110.80373202 -49.05392431 110.80373202 -34.02587891 103.39624023 C-31.11775391 101.93186523 -28.20962891 100.46749023 -25.21337891 98.95874023 C-25.21337891 85.42874023 -25.21337891 71.89874023 -25.21337891 57.95874023 C-38.31078882 54.46354435 -38.31078882 54.46354435 -51.46337891 51.20874023 C-52.37216797 50.98831055 -53.28095703 50.76788086 -54.21728516 50.54077148 C-55.08740234 50.33323242 -55.95751953 50.12569336 -56.85400391 49.91186523 C-57.62260742 49.72785156 -58.39121094 49.54383789 -59.18310547 49.35424805 C-61.3594137 48.86313481 -61.3594137 48.86313481 -64.21337891 48.95874023 Z M-5.21337891 62.95874023 C-5.21337891 74.50874023 -5.21337891 86.05874023 -5.21337891 97.95874023 C-3.56337891 98.28874023 -1.91337891 98.61874023 -0.21337891 98.95874023 C-0.21337891 87.40874023 -0.21337891 75.85874023 -0.21337891 63.95874023 C-1.86337891 63.62874023 -3.51337891 63.29874023 -5.21337891 62.95874023 Z M-21.88916016 118.95092773 C-22.49978806 119.25692902 -23.11041595 119.5629303 -23.73954773 119.87820435 C-25.02056925 120.52322361 -26.29868837 121.1740365 -27.57397461 121.83032227 C-29.53098602 122.83636566 -31.49704753 123.82262186 -33.46533203 124.80639648 C-39.75722322 127.39639821 -39.75722322 127.39639821 -44.21337891 131.95874023 C-38.26923758 133.38575922 -32.32440558 134.80985071 -26.37890625 136.23120117 C-24.35527467 136.71541685 -22.3318362 137.20044026 -20.30859375 137.6862793 C-17.40496067 138.38337886 -14.5006517 139.07759644 -11.59619141 139.77124023 C-10.23362717 140.09934692 -10.23362717 140.09934692 -8.84353638 140.43408203 C-7.5824556 140.73439331 -7.5824556 140.73439331 -6.29589844 141.04077148 C-5.55421417 141.21842041 -4.81252991 141.39606934 -4.04837036 141.57910156 C-2.19926682 142.02627292 -2.19926682 142.02627292 -0.21337891 141.95874023 C-0.21337891 134.36874023 -0.21337891 126.77874023 -0.21337891 118.95874023 C-11.49951142 115.12869755 -11.49951142 115.12869755 -21.88916016 118.95092773 Z M20.78662109 123.95874023 C20.78662109 128.57874023 20.78662109 133.19874023 20.78662109 137.95874023 C27.05662109 134.98874023 33.32662109 132.01874023 39.78662109 128.95874023 C36.52471852 126.78413852 34.09210882 126.18226115 30.28662109 125.33374023 C29.14193359 125.07334961 27.99724609 124.81295898 26.81787109 124.54467773 C23.81026854 123.86384731 23.81026854 123.86384731 20.78662109 123.95874023 Z " fill="#030BAA" transform="translate(84.21337890625,3.041259765625)"/>
<path d="M0 0 C0.85977448 0.20497101 1.71954895 0.40994202 2.6053772 0.62112427 C5.40951171 1.29124837 8.21131908 1.97059991 11.01318359 2.65014648 C12.9717351 3.12011737 14.93042683 3.5895042 16.88925171 4.05833435 C22.01648753 5.2871442 27.14179293 6.52382378 32.26672363 7.76220703 C37.50788031 9.02718053 42.75084203 10.28462587 47.99365234 11.54272461 C58.2597458 14.00740631 68.52381369 16.48041389 78.78662109 18.95874023 C78.78662109 19.61874023 78.78662109 20.27874023 78.78662109 20.95874023 C77.86719727 21.39573242 77.86719727 21.39573242 76.92919922 21.84155273 C62.36395725 28.75315326 62.36395725 28.75315326 47.91162109 35.89624023 C37.70709456 41.05346998 27.37156441 45.94328782 17.0546875 50.87060547 C15.62669506 51.55570367 14.20324298 52.25042929 12.78662109 52.95874023 C12.78662109 69.12874023 12.78662109 85.29874023 12.78662109 101.95874023 C19.19068359 103.31999023 19.19068359 103.31999023 25.72412109 104.70874023 C34.13303635 106.50600969 42.53887774 108.31136186 50.91162109 110.27124023 C51.93823853 110.50955566 51.93823853 110.50955566 52.9855957 110.75268555 C55.38394555 111.32215674 57.57376035 111.85230986 59.78662109 112.95874023 C60.41162109 116.02124023 60.41162109 116.02124023 60.78662109 118.95874023 C64.08662109 119.94874023 67.38662109 120.93874023 70.78662109 121.95874023 C67.87669579 124.14118421 65.51819234 125.72070023 62.34106445 127.31884766 C61.47013657 127.75907761 60.59920868 128.19930756 59.70188904 128.65287781 C58.76949905 129.1186171 57.83710907 129.58435638 56.87646484 130.06420898 C55.91261368 130.54827713 54.94876251 131.03234528 53.95570374 131.53108215 C51.92176677 132.55091763 49.88678302 133.56866774 47.85083008 134.58447266 C44.72868811 136.14395905 41.6120332 137.71404382 38.49560547 139.28491211 C36.51871632 140.27449271 34.54151333 141.26344664 32.56396484 142.25170898 C31.62955063 142.72352097 30.69513641 143.19533295 29.73240662 143.68144226 C28.86463089 144.11221573 27.99685516 144.5429892 27.1027832 144.98681641 C25.95839027 145.55948494 25.95839027 145.55948494 24.7908783 146.14372253 C22.78662109 146.95874023 22.78662109 146.95874023 19.78662109 146.95874023 C19.78662109 143.98874023 19.78662109 141.01874023 19.78662109 137.95874023 C24.71507722 135.55362324 29.64470577 133.15093259 34.57543945 130.75048828 C36.25284803 129.93344734 37.92993359 129.11574291 39.60668945 128.29736328 C42.01608129 127.12154584 44.42662253 125.94811498 46.83740234 124.77514648 C47.58750076 124.40845352 48.33759918 124.04176056 49.11042786 123.66395569 C51.97679732 122.27157781 54.75975637 120.96769514 57.78662109 119.95874023 C56.83827393 119.72219727 55.88992676 119.4856543 54.9128418 119.24194336 C48.34389799 117.60218878 41.77606878 115.95837564 35.21279907 114.29603577 C11.10602108 108.16550925 11.10602108 108.16550925 -13.21337891 102.95874023 C-13.21337891 107.24874023 -13.21337891 111.53874023 -13.21337891 115.95874023 C-23.11337891 120.90874023 -33.01337891 125.85874023 -43.21337891 130.95874023 C-28.69337891 134.58874023 -14.17337891 138.21874023 0.78662109 141.95874023 C0.78662109 143.93874023 0.78662109 145.91874023 0.78662109 147.95874023 C-6.24920874 147.3409246 -12.86705759 145.97970885 -19.71337891 144.27124023 C-21.92557444 143.7293937 -24.1378154 143.18773257 -26.35009766 142.64624023 C-27.4797998 142.36780273 -28.60950195 142.08936523 -29.7734375 141.80249023 C-35.35171884 140.43424749 -40.93921711 139.10476759 -46.52587891 137.77124023 C-49.44708277 137.0733813 -52.36770215 136.37367885 -55.28613281 135.66430664 C-57.37930247 135.15978118 -59.47575004 134.66877819 -61.57421875 134.18676758 C-62.66557129 133.92976074 -63.75692383 133.67275391 -64.88134766 133.40795898 C-65.87803467 133.17810303 -66.87472168 132.94824707 -67.90161133 132.71142578 C-68.66449463 132.46303955 -69.42737793 132.21465332 -70.21337891 131.95874023 C-70.54337891 131.29874023 -70.87337891 130.63874023 -71.21337891 129.95874023 C-70.24400391 129.64936523 -69.27462891 129.33999023 -68.27587891 129.02124023 C-67.26525391 128.34061523 -66.25462891 127.65999023 -65.21337891 126.95874023 C-64.94128906 124.91392825 -64.94128906 124.91392825 -65.04931641 122.64233398 C-64.70118563 118.43571867 -64.70118563 118.43571867 -62.65161133 116.43164062 C-60.41222141 115.10181204 -58.15814517 114.01175249 -55.77587891 112.95874023 C-54.03872788 112.13097581 -52.30175303 111.30284157 -50.56494141 110.47436523 C-49.23124512 109.85851562 -49.23124512 109.85851562 -47.87060547 109.23022461 C-45.28684256 107.99389264 -42.7970059 106.65658555 -40.29931641 105.25561523 C-27.44224776 98.13621353 -27.44224776 98.13621353 -21.27587891 99.33374023 C-19.06103516 100.10717773 -19.06103516 100.10717773 -17.21337891 100.95874023 C-15.72837891 101.45374023 -15.72837891 101.45374023 -14.21337891 101.95874023 C-14.21337891 74.23874023 -14.21337891 46.51874023 -14.21337891 17.95874023 C-17.18337891 19.27874023 -20.15337891 20.59874023 -23.21337891 21.95874023 C-23.87337891 21.95874023 -24.53337891 21.95874023 -25.21337891 21.95874023 C-25.21337891 22.61874023 -25.21337891 23.27874023 -25.21337891 23.95874023 C-25.72312256 24.19584717 -26.23286621 24.4329541 -26.75805664 24.67724609 C-29.05671907 25.74799617 -31.35381184 26.82207218 -33.65087891 27.89624023 C-34.45332031 28.26942383 -35.25576172 28.64260742 -36.08251953 29.02709961 C-36.84628906 29.38481445 -37.61005859 29.7425293 -38.39697266 30.11108398 C-39.10394287 30.44100342 -39.81091309 30.77092285 -40.53930664 31.11083984 C-42.2024948 31.8440858 -42.2024948 31.8440858 -43.21337891 32.95874023 C-41.99779297 33.23588867 -40.78220703 33.51303711 -39.52978516 33.79858398 C-37.94510584 34.16427921 -36.36047279 34.53017498 -34.77587891 34.89624023 C-33.5722168 35.16984375 -33.5722168 35.16984375 -32.34423828 35.44897461 C-26.32666016 36.84545898 -26.32666016 36.84545898 -25.21337891 37.95874023 C-25.17257108 39.95832387 -25.17083534 41.95919277 -25.21337891 43.95874023 C-33.60752115 42.34443457 -41.94116821 40.47794702 -50.27587891 38.58374023 C-50.95781311 38.42878082 -51.63974731 38.27382141 -52.34234619 38.11416626 C-55.08226025 37.4912391 -57.82210863 36.86803112 -60.56158447 36.24317932 C-64.36584702 35.37598877 -68.17273443 34.52219138 -71.98291016 33.68139648 C-73.51812151 33.33658966 -75.0532837 32.99156379 -76.58837891 32.64624023 C-77.87486328 32.36135742 -79.16134766 32.07647461 -80.48681641 31.78295898 C-81.38658203 31.5109668 -82.28634766 31.23897461 -83.21337891 30.95874023 C-83.54337891 30.29874023 -83.87337891 29.63874023 -84.21337891 28.95874023 C-83.31022949 28.52231201 -82.40708008 28.08588379 -81.4765625 27.63623047 C-77.97222721 25.94220833 -74.46943575 24.24500979 -70.96676636 22.54754639 C-68.58529582 21.3947478 -66.20223373 20.24528592 -63.8190918 19.09594727 C-56.00887754 15.32020997 -48.24099306 11.48968342 -40.56103516 7.45483398 C-39.21113738 6.75270804 -37.86104405 6.05095789 -36.51074219 5.34960938 C-34.59688268 4.35537685 -32.68900877 3.35445443 -30.79388428 2.32492065 C-29.04803366 1.37677315 -27.28520633 0.46009299 -25.52197266 -0.45532227 C-24.540271 -0.98077637 -23.55856934 -1.50623047 -22.54711914 -2.04760742 C-15.27712238 -4.2144977 -7.21201236 -1.76672982 0 0 Z M-5.21337891 19.95874023 C-5.21337891 27.54874023 -5.21337891 35.13874023 -5.21337891 42.95874023 C4.79027234 46.23444564 9.76191589 46.52176415 18.98345947 41.95632935 C21.05799959 40.8792817 23.1090853 39.76455335 25.16162109 38.64624023 C26.58940929 37.90623597 28.01909261 37.1698763 29.45068359 36.43725586 C32.91925527 34.65231258 36.35853234 32.82016754 39.78662109 30.95874023 C35.85757796 28.63581071 31.58640649 27.81859069 27.18896484 26.79467773 C26.35828995 26.59774323 25.52761505 26.40080872 24.67176819 26.19790649 C22.91984535 25.78375858 21.16734232 25.37205829 19.41430664 24.96264648 C16.72893276 24.3348651 14.04578319 23.69818556 11.36279297 23.06030273 C9.65914175 22.65873116 7.95536966 22.25767194 6.25146484 21.85717773 C5.4482933 21.66658783 4.64512177 21.47599792 3.81761169 21.27963257 C0.74345717 20.56529263 -2.04585299 19.95874023 -5.21337891 19.95874023 Z M-5.21337891 62.95874023 C-5.21337891 74.50874023 -5.21337891 86.05874023 -5.21337891 97.95874023 C-3.56337891 98.28874023 -1.91337891 98.61874023 -0.21337891 98.95874023 C-0.21337891 87.40874023 -0.21337891 75.85874023 -0.21337891 63.95874023 C-1.86337891 63.62874023 -3.51337891 63.29874023 -5.21337891 62.95874023 Z " fill="#050BA5" transform="translate(84.21337890625,3.041259765625)"/>
<path d="M0 0 C0 36.63 0 73.26 0 111 C-22.21946012 122.6944527 -22.21946012 122.6944527 -31.875 127.5 C-32.9570874 128.03971436 -34.0391748 128.57942871 -35.15405273 129.13549805 C-42.42939444 132.7521265 -49.73086025 136.31142893 -57.0625 139.8125 C-57.95501465 140.23917969 -58.8475293 140.66585937 -59.76708984 141.10546875 C-60.57742676 141.48960937 -61.38776367 141.87375 -62.22265625 142.26953125 C-62.93172119 142.60573486 -63.64078613 142.94193848 -64.37133789 143.28833008 C-66 144 -66 144 -67 144 C-67 129.48 -67 114.96 -67 100 C-64.03 100.66 -61.06 101.32 -58 102 C-57.97257987 104.31243128 -57.95341718 106.62496094 -57.9375 108.9375 C-57.92589844 110.22527344 -57.91429688 111.51304687 -57.90234375 112.83984375 C-57.93565149 117.26547505 -58.43647227 121.61439464 -59 126 C-42.55229438 118.220552 -26.24761896 110.18757565 -10 102 C-12.97 100.68 -15.94 99.36 -19 98 C-19 73.25 -19 48.5 -19 23 C-26.26 26.63 -33.52 30.26 -41 34 C-55.62686567 41 -55.62686567 41 -58 41 C-58 54.86 -58 68.72 -58 83 C-66 82 -66 82 -67 81 C-67.09319449 79.4651703 -67.117458 77.92607918 -67.11352539 76.38842773 C-67.11344986 75.40748642 -67.11337433 74.4265451 -67.11329651 73.4158783 C-67.10813522 72.3492244 -67.10297394 71.2825705 -67.09765625 70.18359375 C-67.0962413 69.0974025 -67.09482635 68.01121124 -67.09336853 66.8921051 C-67.08775048 63.40720925 -67.07519492 59.92237658 -67.0625 56.4375 C-67.05748733 54.08138113 -67.05292402 51.72526126 -67.04882812 49.36914062 C-67.03777519 43.57940536 -67.02101951 37.78970719 -67 32 C-55.86920467 26.07093424 -44.70122402 20.29330529 -33.3125 14.875 C-24.64670877 10.73372738 -15.98901301 6.58563272 -7.4777832 2.13232422 C-4.74346239 0.72932506 -3.12986365 0 0 0 Z " fill="#090A0C" transform="translate(163,24)"/>
<path d="M0 0 C0.85977448 0.20497101 1.71954895 0.40994202 2.6053772 0.62112427 C5.40951171 1.29124837 8.21131908 1.97059991 11.01318359 2.65014648 C12.9717351 3.12011737 14.93042683 3.5895042 16.88925171 4.05833435 C22.01648753 5.2871442 27.14179293 6.52382378 32.26672363 7.76220703 C37.50788031 9.02718053 42.75084203 10.28462587 47.99365234 11.54272461 C58.2597458 14.00740631 68.52381369 16.48041389 78.78662109 18.95874023 C78.78662109 19.61874023 78.78662109 20.27874023 78.78662109 20.95874023 C77.86719727 21.39573242 77.86719727 21.39573242 76.92919922 21.84155273 C62.36434339 28.75394269 62.36434339 28.75394269 47.91162109 35.89624023 C40.83768347 39.45836124 33.72578999 42.94090106 26.59912109 46.39624023 C25.51066895 46.92918701 24.4222168 47.46213379 23.30078125 48.01123047 C22.27130371 48.50824463 21.24182617 49.00525879 20.18115234 49.51733398 C19.26180908 49.96391357 18.34246582 50.41049316 17.39526367 50.87060547 C11.68600694 53.25208954 7.80464398 52.74528958 1.97412109 51.02124023 C1.28125 50.82594727 0.58837891 50.6306543 -0.12548828 50.42944336 C-1.82427852 49.94909577 -3.51924486 49.45526002 -5.21337891 48.95874023 C-5.21337891 46.97874023 -5.21337891 44.99874023 -5.21337891 42.95874023 C-3.81724825 43.10169915 -2.42148582 43.24825581 -1.02587891 43.39624023 C-0.24857422 43.47745117 0.52873047 43.55866211 1.32958984 43.64233398 C3.78662109 43.95874023 3.78662109 43.95874023 6.02319336 44.65991211 C9.88866163 45.07791133 11.99913983 43.7877502 15.45849609 42.05639648 C16.09442184 41.74323486 16.7303476 41.43007324 17.38554382 41.10742188 C19.44240938 40.09124194 21.48925822 39.05641162 23.53662109 38.02124023 C24.93961753 37.32437314 26.34334711 36.62898017 27.74780273 35.93505859 C30.5076508 34.57051018 33.26458753 33.2003481 36.01953125 31.82592773 C40.72129876 29.48692496 45.46373601 27.23817582 50.22412109 25.02124023 C51.40208252 24.47145508 52.58004395 23.92166992 53.79370117 23.35522461 C54.78136475 22.89438477 55.76902832 22.43354492 56.78662109 21.95874023 C45.6839828 18.93626958 34.53496781 16.15437417 23.34912109 13.45874023 C20.98449305 12.88760697 18.61999354 12.3159527 16.25570679 11.7434082 C14.7056281 11.36855772 13.15519593 10.99516571 11.60440063 10.62329102 C7.80370665 9.70833258 4.01559697 8.7628404 0.23925781 7.75170898 C-0.48536148 7.56064575 -1.20998077 7.36958252 -1.95655823 7.17272949 C-3.93239664 6.64908267 -5.90516227 6.11388027 -7.87768555 5.57788086 C-13.01182492 4.62492928 -16.35448662 5.84904452 -20.95947266 8.07592773 C-21.86938965 8.51308105 -22.77930664 8.95023438 -23.71679688 9.40063477 C-25.16916748 10.11002197 -25.16916748 10.11002197 -26.65087891 10.83374023 C-27.6526416 11.3182666 -28.6544043 11.80279297 -29.68652344 12.30200195 C-37.00751941 15.85438396 -44.30399858 19.45692814 -51.58837891 23.08374023 C-52.53898193 23.55666504 -53.48958496 24.02958984 -54.46899414 24.5168457 C-55.34112549 24.95399902 -56.21325684 25.39115234 -57.11181641 25.84155273 C-57.88187012 26.22714355 -58.65192383 26.61273437 -59.4453125 27.01000977 C-61.18459838 27.83371411 -61.18459838 27.83371411 -62.21337891 28.95874023 C-53.92458137 31.18256396 -45.59001818 32.93041142 -37.15771484 34.51245117 C-32.97272814 35.31744471 -29.1098651 36.15851561 -25.21337891 37.95874023 C-25.21337891 39.93874023 -25.21337891 41.91874023 -25.21337891 43.95874023 C-33.60752115 42.34443457 -41.94116821 40.47794702 -50.27587891 38.58374023 C-50.95781311 38.42878082 -51.63974731 38.27382141 -52.34234619 38.11416626 C-55.08226025 37.4912391 -57.82210863 36.86803112 -60.56158447 36.24317932 C-64.36584702 35.37598877 -68.17273443 34.52219138 -71.98291016 33.68139648 C-73.51812151 33.33658966 -75.0532837 32.99156379 -76.58837891 32.64624023 C-77.87486328 32.36135742 -79.16134766 32.07647461 -80.48681641 31.78295898 C-81.38658203 31.5109668 -82.28634766 31.23897461 -83.21337891 30.95874023 C-83.54337891 30.29874023 -83.87337891 29.63874023 -84.21337891 28.95874023 C-83.31022949 28.52231201 -82.40708008 28.08588379 -81.4765625 27.63623047 C-77.97222721 25.94220833 -74.46943575 24.24500979 -70.96676636 22.54754639 C-68.58529582 21.3947478 -66.20223373 20.24528592 -63.8190918 19.09594727 C-56.00887754 15.32020997 -48.24099306 11.48968342 -40.56103516 7.45483398 C-39.21113738 6.75270804 -37.86104405 6.05095789 -36.51074219 5.34960938 C-34.59688268 4.35537685 -32.68900877 3.35445443 -30.79388428 2.32492065 C-29.04803366 1.37677315 -27.28520633 0.46009299 -25.52197266 -0.45532227 C-24.540271 -0.98077637 -23.55856934 -1.50623047 -22.54711914 -2.04760742 C-15.27712238 -4.2144977 -7.21201236 -1.76672982 0 0 Z " fill="#D8003C" transform="translate(84.21337890625,3.041259765625)"/>
<path d="M0 0 C0 28.05 0 56.1 0 85 C-10 83 -10 83 -11 82 C-11.09496708 79.59651714 -11.12558862 77.22189018 -11.11352539 74.81811523 C-11.11367142 74.06694427 -11.11381744 73.31577332 -11.1139679 72.5418396 C-11.11326863 70.04739541 -11.10547564 67.55302497 -11.09765625 65.05859375 C-11.09579212 63.33366436 -11.09436819 61.60873443 -11.09336853 59.88380432 C-11.08954297 55.33487497 -11.07971238 50.78597733 -11.06866455 46.23706055 C-11.05845124 41.59879994 -11.05387108 36.96053423 -11.04882812 32.32226562 C-11.03809014 23.21482978 -11.02101327 14.10741752 -11 5 C-9.35538655 4.16426177 -7.70927487 3.33147118 -6.0625 2.5 C-4.68771484 1.80390625 -4.68771484 1.80390625 -3.28515625 1.09375 C-1 0 -1 0 0 0 Z " fill="#030BAA" transform="translate(155,40)"/>
<path d="M0 0 C7.3181604 2.19311502 14.7131981 3.80315748 22.1875 5.375 C38.55827246 8.82279047 38.55827246 8.82279047 46.5 10.6875 C47.18553955 10.84669922 47.8710791 11.00589844 48.57739258 11.16992188 C50.9746595 11.73892419 53.16318833 12.26909416 55.375 13.375 C56 16.4375 56 16.4375 56.375 19.375 C59.675 20.365 62.975 21.355 66.375 22.375 C63.4650747 24.55744397 61.10657125 26.13696 57.92944336 27.73510742 C57.05851547 28.17533737 56.18758759 28.61556732 55.29026794 29.06913757 C54.35787796 29.53487686 53.42548798 30.00061615 52.46484375 30.48046875 C51.50099258 30.9645369 50.53714142 31.44860504 49.54408264 31.94734192 C47.51014567 32.96717739 45.47516192 33.98492751 43.43920898 35.00073242 C40.31706701 36.56021881 37.2004121 38.13030359 34.08398438 39.70117188 C32.10709523 40.69075247 30.12989224 41.67970641 28.15234375 42.66796875 C26.75072243 43.37568672 26.75072243 43.37568672 25.32078552 44.09770203 C24.4530098 44.52847549 23.58523407 44.95924896 22.69116211 45.40307617 C21.92823349 45.78485519 21.16530487 46.16663422 20.3792572 46.5599823 C18.375 47.375 18.375 47.375 15.375 47.375 C15.375 44.405 15.375 41.435 15.375 38.375 C20.30345612 35.969883 25.23308467 33.56719236 30.16381836 31.16674805 C31.84122694 30.34970711 33.5183125 29.53200267 35.19506836 28.71362305 C37.60446019 27.53780561 40.01500143 26.36437475 42.42578125 25.19140625 C43.55092888 24.64136681 43.55092888 24.64136681 44.69880676 24.08021545 C47.56517622 22.68783757 50.34813528 21.38395491 53.375 20.375 C52.42737793 20.13845703 51.47975586 19.90191406 50.50341797 19.65820312 C43.92649386 18.01562919 37.35027109 16.37042508 30.77716064 14.71264648 C27.77709053 13.95626075 24.77650379 13.20193543 21.77587891 12.44775391 C20.26199352 12.06676537 18.74832021 11.68493309 17.23486328 11.30224609 C14.97226941 10.73037098 12.70900083 10.16127673 10.4453125 9.59375 C9.70895569 9.40868896 8.97259888 9.22362793 8.21392822 9.03295898 C4.24458889 8.04713968 0.26914018 7.12424675 -3.73144531 6.2734375 C-4.56233673 6.09590942 -5.39322815 5.91838135 -6.2492981 5.73547363 C-7.85090946 5.39713121 -9.45414074 5.06634755 -11.05905151 4.74401855 C-12.92859698 4.35000897 -14.77971081 3.87032982 -16.625 3.375 C-16.955 2.715 -17.285 2.055 -17.625 1.375 C-11.2645128 -2.25956411 -6.86035435 -2.22644745 0 0 Z " fill="#D4003C" transform="translate(88.625,102.625)"/>
<path d="M0 0 C1.84765625 0.94921875 1.84765625 0.94921875 4.84765625 2.94921875 C-1.64430834 6.2331629 -8.14091477 9.50777782 -14.64086914 12.77587891 C-16.85256814 13.88928213 -19.06318645 15.00483473 -21.27270508 16.12255859 C-24.44462474 17.72666605 -27.62032156 19.32306126 -30.796875 20.91796875 C-31.78758499 21.42106567 -32.77829498 21.9241626 -33.79902649 22.44250488 C-34.71975449 22.90298218 -35.64048248 23.36345947 -36.58911133 23.83789062 C-37.39963455 24.24648315 -38.21015778 24.65507568 -39.04524231 25.0760498 C-41.15234375 25.94921875 -41.15234375 25.94921875 -44.15234375 25.94921875 C-44.15234375 26.60921875 -44.15234375 27.26921875 -44.15234375 27.94921875 C-43.0953125 28.06007812 -42.03828125 28.1709375 -40.94921875 28.28515625 C-35.03008048 29.02958775 -29.22967553 30.31484688 -23.40234375 31.57421875 C-22.19545898 31.83348145 -20.98857422 32.09274414 -19.74511719 32.35986328 C-6.47104291 35.25231527 6.69182065 38.56205942 19.84765625 41.94921875 C19.84765625 43.92921875 19.84765625 45.90921875 19.84765625 47.94921875 C12.81182642 47.33140311 6.19397757 45.97018736 -0.65234375 44.26171875 C-2.86453929 43.71987222 -5.07678024 43.17821109 -7.2890625 42.63671875 C-8.41876465 42.35828125 -9.5484668 42.07984375 -10.71240234 41.79296875 C-16.29068369 40.424726 -21.87818196 39.09524611 -27.46484375 37.76171875 C-30.38604761 37.06385982 -33.30666699 36.36415736 -36.22509766 35.65478516 C-38.31826731 35.15025969 -40.41471488 34.6592567 -42.51318359 34.17724609 C-43.60453613 33.92023926 -44.69588867 33.66323242 -45.8203125 33.3984375 C-46.81699951 33.16858154 -47.81368652 32.93872559 -48.84057617 32.7019043 C-49.60345947 32.45351807 -50.36634277 32.20513184 -51.15234375 31.94921875 C-51.48234375 31.28921875 -51.81234375 30.62921875 -52.15234375 29.94921875 C-50.69828125 29.48515625 -50.69828125 29.48515625 -49.21484375 29.01171875 C-48.20421875 28.33109375 -47.19359375 27.65046875 -46.15234375 26.94921875 C-45.8802539 24.90440676 -45.8802539 24.90440676 -45.98828125 22.6328125 C-45.64015047 18.42619718 -45.64015047 18.42619718 -43.59057617 16.42211914 C-41.35118625 15.09229055 -39.09711001 14.002231 -36.71484375 12.94921875 C-34.97769272 12.12145433 -33.24071787 11.29332009 -31.50390625 10.46484375 C-30.61477539 10.05427734 -29.72564453 9.64371094 -28.80957031 9.22070312 C-26.22580741 7.98437115 -23.73597074 6.64706406 -21.23828125 5.24609375 C-7.34522818 -2.44840939 -7.34522818 -2.44840939 0 0 Z " fill="#D6003C" transform="translate(65.15234375,103.05078125)"/>
<path d="M0 0 C6.54747307 0.60624751 11.46391156 2.03917347 18 4 C18 20.17 18 36.34 18 53 C7 51 7 51 6 50 C5.91148471 47.40640678 5.88474055 44.83960309 5.90234375 42.24609375 C5.9037587 41.47064713 5.90517365 40.6952005 5.90663147 39.89625549 C5.91224655 37.40996506 5.92480154 34.9237634 5.9375 32.4375 C5.94251306 30.75586067 5.9470763 29.07421994 5.95117188 27.39257812 C5.96222087 23.26168434 5.97949555 19.13085724 6 15 C4.02 14.34 2.04 13.68 0 13 C0 8.71 0 4.42 0 0 Z " fill="#040BA8" transform="translate(78,52)"/>
<path d="M0 0 C2.64 0.33 5.28 0.66 8 1 C8 27.07 8 53.14 8 80 C5.36 81.32 2.72 82.64 0 84 C0 56.28 0 28.56 0 0 Z " fill="#0A0A0C" transform="translate(12,50)"/>
<path d="M0 0 C6 1 6 1 8 2 C8 28.07 8 54.14 8 81 C2 84 2 84 0 84 C0 56.28 0 28.56 0 0 Z " fill="#0A0A0C" transform="translate(71,20)"/>
<path d="M0 0 C0 3.96 0 7.92 0 12 C-8.75 17 -8.75 17 -11 17 C-11 17.66 -11 18.32 -11 19 C-13.93882175 20.56082479 -16.90323087 22.06549355 -19.875 23.5625 C-21.10863281 24.21895508 -21.10863281 24.21895508 -22.3671875 24.88867188 C-29.73201095 28.54231476 -35.11749195 28.24976665 -42.9453125 26.24609375 C-43.66460937 25.97925781 -44.38390625 25.71242188 -45.125 25.4375 C-45.87007812 25.16808594 -46.61515625 24.89867188 -47.3828125 24.62109375 C-47.91648437 24.41613281 -48.45015625 24.21117188 -49 24 C-46.40741562 21.97216817 -43.86517494 20.30809963 -40.92163086 18.83935547 C-40.13078598 18.44239471 -39.3399411 18.04543396 -38.52513123 17.63644409 C-37.68023636 17.21758942 -36.83534149 16.79873474 -35.96484375 16.3671875 C-35.08977676 15.92988312 -34.21470978 15.49257874 -33.31312561 15.04202271 C-31.46742763 14.12068119 -29.62076031 13.20127931 -27.77319336 12.28369141 C-24.94217891 10.87732435 -22.1144271 9.46456296 -19.28710938 8.05078125 C-17.49237599 7.15587189 -15.69746027 6.26132808 -13.90234375 5.3671875 C-13.05542465 4.94428436 -12.20850555 4.52138123 -11.33592224 4.08566284 C-10.54822952 3.69500641 -9.7605368 3.30434998 -8.94897461 2.90185547 C-8.25710556 2.55782684 -7.56523651 2.21379822 -6.85240173 1.85934448 C-4.54505743 0.78894838 -2.56493658 0 0 0 Z " fill="#0D0A0D" transform="translate(70,8)"/>
<path d="M0 0 C0.495 6.435 0.495 6.435 1 13 C-3.11545123 15.1571696 -7.24131172 17.29239381 -11.37792969 19.40869141 C-12.7813281 20.13041149 -14.18179229 20.8578689 -15.57910156 21.59130859 C-17.59722225 22.64931052 -19.62526749 23.68569748 -21.65625 24.71875 C-22.2711731 25.04685669 -22.88609619 25.37496338 -23.51965332 25.7130127 C-30.31398187 29.11359808 -36.29343345 28.46542724 -43.5 26.5 C-44.5415625 26.2215625 -45.583125 25.943125 -46.65625 25.65625 C-47.4296875 25.4396875 -48.203125 25.223125 -49 25 C-49 24.34 -49 23.68 -49 23 C-48.42894531 22.72961914 -47.85789062 22.45923828 -47.26953125 22.18066406 C-34.61374224 16.17972754 -22.02324543 10.07320797 -9.54492188 3.70996094 C-8.58521484 3.22430664 -7.62550781 2.73865234 -6.63671875 2.23828125 C-5.78811279 1.80555908 -4.93950684 1.37283691 -4.06518555 0.92700195 C-2 0 -2 0 0 0 Z " fill="#0B0A0C" transform="translate(70,106)"/>
</svg>
